#!OML:ASF F:\twosubjects\two\Thursday\Session 1\Rory.ASF
:FULLY-SPECIFIED
:DEGREES
305
root 10.1209 18.5832 12.2515 53.0285 -94.1058 -53.483
lowerback -1.05445 -1.78518 -2.83005
upperback -1.07296 -2.40573 -2.17928
thorax -0.487212 -1.20804 -0.66326
lowerneck -11.7051 -2.97072 -3.32762
upperneck 16.6295 -4.61463 5.42351
head 7.2279 -2.01708 1.85388
rclavicle 2.70844e-014 2.06736e-014
rhumerus 31.784 -48.8918 -7.74343
rradius 53.8417
rwrist -10.2963
rhand -39.9818 36.1211
rfingers 7.12502
rthumb -12.9502 6.54301
lclavicle 2.70844e-014 2.06736e-014
lhumerus 30.2077 46.015 1.92475
lradius 51.0343
lwrist 16.7216
lhand -13.0856 38.4094
lfingers 7.12502
lthumb 13.0107 67.9836
rfemur -6.50228 20.7716 -5.12264
rtibia 26.9657
rfoot 7.26997 -7.25113
rtoes -17.0805
lfemur -0.67869 -11.2809 2.21342
ltibia 22.7639
lfoot 10.2951 -3.44694
ltoes -8.53159
306
root 10.1411 18.329 12.2513 49.0603 -94.071 -49.6877
lowerback -0.621147 -1.72266 -2.53492
upperback -1.0723 -2.34017 -2.16517
thorax -0.74073 -1.1742 -0.7979
lowerneck -11.4717 -2.98577 -2.98701
upperneck 16.2119 -4.62653 5.1636
head 7.03811 -2.02996 1.71501
rclavicle -7.70291e-016 -2.70347e-014
rhumerus 34.1601 -49.5762 -8.17901
rradius 55.027
rwrist -10.1035
rhand -39.8471 36.3465
rfingers 7.12502
rthumb -12.8204 6.76015
lclavicle -7.70291e-016 -2.70347e-014
lhumerus 32.6714 47.2256 2.83443
lradius 52.2218
lwrist 16.5526
lhand -13.0892 38.2361
lfingers 7.12502
lthumb 13.0072 67.8106
rfemur -6.66009 21.4514 -5.45782
rtibia 27.6579
rfoot 4.31033 -5.7788
rtoes -27.7548
lfemur -0.875635 -11.5688 2.75834
ltibia 23.71
lfoot 8.38485 -5.25409
ltoes -13.3364
307
root 10.1659 18.0595 12.2538 44.8311 -93.8986 -45.5995
lowerback -0.27693 -1.74731 -2.12303
upperback -1.00998 -2.37963 -2.08762
thorax -0.88252 -1.19426 -0.937527
lowerneck -11.2454 -2.87423 -2.63353
upperneck 15.7766 -4.46233 4.89056
head 6.83681 -1.95825 1.5879
rclavicle 1.29707e-014 -3.97569e-015
rhumerus 36.9508 -50.4914 -9.40344
rradius 56.8743
rwrist -9.57612
rhand -39.4417 35.5776
rfingers 7.12502
rthumb -12.4295 5.96721
lclavicle 1.29707e-014 -3.97569e-015
lhumerus 35.0845 48.426 3.71856
lradius 53.4429
lwrist 16.5187
lhand -13.5384 38.127
lfingers 7.12502
lthumb 12.5742 67.7286
rfemur -6.78915 22.2026 -5.57101
rtibia 28.7436
rfoot -0.0801617 -4.68364
rtoes -39.8559
lfemur -1.14727 -12.0744 3.42194
ltibia 25.1127
lfoot 4.80789 -6.8886
ltoes -23.9777
308
root 10.199 17.7887 12.2593 42.065 -94.1411 -42.843
lowerback 0.13156 -1.83195 -2.0951
upperback -1.18708 -2.51237 -2.04166
thorax -1.29246 -1.25755 -0.88714
lowerneck -10.6891 -2.6592 -2.78836
upperneck 15.3244 -4.14696 5.01813
head 6.58756 -1.81795 1.69087
rclavicle 6.98231e-015 3.97569e-016
rhumerus 40.0286 -50.864 -10.8072
rradius 58.553
rwrist -8.96691
rhand -39.6486 36.0097
rfingers 7.12502
rthumb -12.629 6.41144
lclavicle 6.98231e-015 3.97569e-016
lhumerus 36.6543 49.3142 3.84382
lradius 55.0392
lwrist 16.7427
lhand -13.9591 38.0246
lfingers 7.12502
lthumb 12.1686 67.6507
rfemur -7.33299 22.4796 -6.23744
rtibia 30.2643
rfoot -4.4475 -3.93589
rtoes -40.2242
lfemur -1.33021 -12.341 3.66334
ltibia 26.8889
lfoot 0.0961512 -7.92167
ltoes -24.8459
309
root 10.2318 17.5211 12.2642 42.1079 -94.6439 -43.0395
lowerback 0.763317 -1.83313 -2.5248
upperback -1.38839 -2.55225 -2.03026
thorax -1.83513 -1.26784 -0.608729
lowerneck -10.067 -2.5989 -2.90791
upperneck 14.8568 -4.07488 5.26362
head 6.33478 -1.78615 1.80237
rclavicle -1.89839e-014 -5.56597e-015
rhumerus 42.9541 -51.0413 -11.7486
rradius 59.7848
rwrist -8.39704
rhand -40.0053 37.2245
rfingers 7.12502
rthumb -12.9729 7.6478
lclavicle -1.89839e-014 -5.56597e-015
lhumerus 38.4664 50.0333 4.48221
lradius 56.7512
lwrist 16.8111
lhand -14.712 38.004
lfingers 7.12502
lthumb 11.4425 67.6718
rfemur -7.95346 22.746 -7.23404
rtibia 32.1146
rfoot -8.18748 -3.35143
rtoes -39.96
lfemur -1.34705 -12.6187 3.46549
ltibia 28.8962
lfoot -4.50207 -7.7558
ltoes -28.6286
310
root 10.2599 17.2532 12.269 43.5336 -94.8488 -44.8342
lowerback 1.41607 -1.82263 -2.92376
upperback -1.31442 -2.56935 -1.97017
thorax -2.10601 -1.26665 -0.302754
lowerneck -9.88359 -2.66245 -2.93441
upperneck 14.5319 -4.13387 5.23427
head 6.20261 -1.82269 1.79444
rclavicle -4.31238e-014 -3.97569e-016
rhumerus 45.924 -51.6274 -12.5951
rradius 60.9297
rwrist -7.68248
rhand -39.591 37.3375
rfingers 7.12502
rthumb -12.5735 7.73585
lclavicle -4.31238e-014 -3.97569e-016
lhumerus 41.0914 51.0049 6.13307
lradius 58.2826
lwrist 16.3869
lhand -15.3114 37.7401
lfingers 7.12502
lthumb 10.8644 67.4391
rfemur -8.32672 22.8142 -7.89427
rtibia 34.1139
rfoot -11.8335 -2.96924
rtoes -42.9356
lfemur -1.46428 -13.0318 3.34938
ltibia 30.961
lfoot -8.58063 -7.27508
ltoes -34.0873
311
root 10.2901 16.9898 12.2742 41.3846 -94.9365 -43.1966
lowerback 2.3089 -1.75383 -2.94401
upperback -1.21833 -2.50869 -1.85794
thorax -2.50409 -1.22892 -0.149127
lowerneck -9.66332 -2.75018 -3.05883
upperneck 14.2116 -4.17271 4.98062
head 6.06211 -1.87071 1.73409
rclavicle -2.33572e-015 3.37934e-015
rhumerus 48.7326 -52.1904 -13.6198
rradius 62.5347
rwrist -6.96743
rhand -39.3499 37.0723
rfingers 7.12502
rthumb -12.3411 7.45651
lclavicle -2.33572e-015 3.37934e-015
lhumerus 44.191 52.009 8.23535
lradius 59.6795
lwrist 15.6157
lhand -15.2168 36.7104
lfingers 7.12502
lthumb 10.9556 66.4046
rfemur -8.80213 22.8524 -8.14633
rtibia 36.1544
rfoot -15.3412 -3.23197
rtoes -46.6263
lfemur -1.54742 -13.0945 3.54548
ltibia 32.9206
lfoot -12.4821 -7.11223
ltoes -36.4075
312
root 10.3238 16.7341 12.2826 37.5496 -95.1528 -39.961
lowerback 3.50744 -1.57244 -2.68319
upperback -1.28031 -2.31075 -1.89974
thorax -3.25843 -1.12567 -0.307427
lowerneck -9.7051 -2.96023 -3.39001
upperneck 14.5464 -4.46587 5.19675
head 6.19969 -2.01393 1.83101
rclavicle -2.82026e-014 -6.55989e-015
rhumerus 50.7091 -52.3883 -13.9688
rradius 64.014
rwrist -6.71252
rhand -40.0371 38.0845
rfingers 7.12502
rthumb -13.0035 8.50974
lclavicle -2.82026e-014 -6.55989e-015
lhumerus 47.8517 52.556 10.7459
lradius 61.1303
lwrist 14.8135
lhand -15.4139 35.4589
lfingers 7.12502
lthumb 10.7655 65.163
rfemur -9.46707 22.9225 -8.31441
rtibia 38.217
rfoot -18.432 -3.94198
rtoes -48.5136
lfemur -1.54705 -12.8315 3.75909
ltibia 34.7992
lfoot -16.0541 -6.81667
ltoes -35.5288
313
root 10.3556 16.4913 12.2882 35.9684 -95.4384 -39.0641
lowerback 4.69684 -1.42706 -2.60366
upperback -1.3662 -2.17787 -2.13002
thorax -4.03324 -1.05657 -0.562649
lowerneck -9.43681 -3.22612 -3.19751
upperneck 14.8028 -4.89352 5.18773
head 6.24907 -2.21936 1.76239
rclavicle -8.07563e-015 0
rhumerus 52.5459 -52.4166 -14.308
rradius 64.9715
rwrist -6.74793
rhand -40.6681 39.5544
rfingers 7.12502
rthumb -13.6118 10.0194
lclavicle -8.07563e-015 0
lhumerus 51.503 52.6615 13.0783
lradius 62.7415
lwrist 13.9628
lhand -15.9288 34.6537
lfingers 7.12502
lthumb 10.2689 64.383
rfemur -10.0312 22.869 -8.58313
rtibia 40.3362
rfoot -21.4081 -4.1141
rtoes -47.9031
lfemur -1.48621 -12.4761 3.72907
ltibia 36.6499
lfoot -19.2493 -6.1766
ltoes -35.7691
314
root 10.3889 16.2631 12.2863 37.0156 -95.8017 -40.8087
lowerback 5.74675 -1.41354 -3.00587
upperback -1.37545 -2.25344 -2.38428
thorax -4.63322 -1.08251 -0.565615
lowerneck -9.01367 -3.17719 -2.78594
upperneck 14.916 -4.9084 5.1163
head 6.20042 -2.22136 1.67646
rclavicle 3.21534e-014 4.37326e-015
rhumerus 55.2253 -52.4275 -16.1547
rradius 66.3565
rwrist -6.57471
rhand -40.4063 40.4132
rfingers 7.12502
rthumb -13.3595 10.8615
lclavicle 3.21534e-014 4.37326e-015
lhumerus 54.5597 52.7243 14.8794
lradius 64.3989
lwrist 13.0446
lhand -16.415 33.8026
lfingers 7.12502
lthumb 9.79978 63.5546
rfemur -10.5248 22.7044 -8.98308
rtibia 42.5151
rfoot -24.0829 -4.73873
rtoes -47.149
lfemur -1.48355 -12.0854 3.39147
ltibia 38.5053
lfoot -22.0751 -5.0054
ltoes -38.0681
315
root 10.4265 16.0439 12.2837 37.9284 -96.2122 -42.3849
lowerback 6.77476 -1.37968 -3.44247
upperback -1.29157 -2.31087 -2.5998
thorax -5.12175 -1.09807 -0.512817
lowerneck -8.71726 -3.01698 -2.70946
upperneck 14.8357 -4.75478 5.39342
head 6.12209 -2.13125 1.76889
rclavicle 8.69683e-015 1.15295e-014
rhumerus 57.8163 -52.4412 -18.2169
rradius 68.1821
rwrist -6.78892
rhand -40.0733 40.9156
rfingers 7.12502
rthumb -13.0385 11.3431
lclavicle 8.69683e-015 1.15295e-014
lhumerus 57.4722 52.8432 16.8003
lradius 66.0022
lwrist 12.3565
lhand -17.5324 32.8803
lfingers 7.12502
lthumb 8.72162 62.6801
rfemur -11.1155 22.3122 -9.29701
rtibia 44.7145
rfoot -25.8368 -7.36875
rtoes -48.9378
lfemur -1.57579 -11.5224 3.0603
ltibia 40.344
lfoot -24.449 -3.56267
ltoes -39.7755
